<mxfile host="app.diagrams.net" modified="2020-08-31T11:40:06.435Z" agent="5.0 (Windows NT 10.0; Win64; x64) AppleWebKit/537.36 (KHTML, like Gecko) Chrome/84.0.4147.135 Safari/537.36" etag="UFkWZ1wRetGwDTUYhmf0" version="13.6.6" type="github">
  <diagram id="5gDUzeO4PoTaV-4b7bQq" name="Page-1">
    <mxGraphModel dx="1422" dy="762" grid="1" gridSize="10" guides="1" tooltips="1" connect="1" arrows="1" fold="1" page="1" pageScale="1" pageWidth="827" pageHeight="1169" math="0" shadow="0">
      <root>
        <mxCell id="0" />
        <mxCell id="1" parent="0" />
        <mxCell id="2U_4QRMur62_ThH1Fj4S-2" value="" style="rounded=0;whiteSpace=wrap;html=1;" vertex="1" parent="1">
          <mxGeometry x="40" y="40" width="530" height="290" as="geometry" />
        </mxCell>
        <mxCell id="2U_4QRMur62_ThH1Fj4S-3" value="" style="shape=cylinder2;whiteSpace=wrap;html=1;boundedLbl=1;backgroundOutline=1;size=15;" vertex="1" parent="1">
          <mxGeometry x="80" y="430" width="120" height="140" as="geometry" />
        </mxCell>
        <mxCell id="2U_4QRMur62_ThH1Fj4S-4" value="" style="rounded=0;whiteSpace=wrap;html=1;" vertex="1" parent="1">
          <mxGeometry x="100" y="120" width="120" height="60" as="geometry" />
        </mxCell>
      </root>
    </mxGraphModel>
  </diagram>
</mxfile>
